<?xml version="1.0" encoding="utf-8" standalone="no"?>
<!DOCTYPE svg PUBLIC "-//W3C//DTD SVG 1.1//EN"
  "http://www.w3.org/Graphics/SVG/1.1/DTD/svg11.dtd">
<svg xmlns:xlink="http://www.w3.org/1999/xlink" width="996.599062pt" height="564.616376pt" viewBox="0 0 996.599062 564.616376" xmlns="http://www.w3.org/2000/svg" version="1.1">
 <metadata>
  <rdf:RDF xmlns:dc="http://purl.org/dc/elements/1.1/" xmlns:cc="http://creativecommons.org/ns#" xmlns:rdf="http://www.w3.org/1999/02/22-rdf-syntax-ns#">
   <cc:Work>
    <dc:type rdf:resource="http://purl.org/dc/dcmitype/StillImage"/>
    <dc:date>2025-11-17T16:52:21.994191</dc:date>
    <dc:format>image/svg+xml</dc:format>
    <dc:creator>
     <cc:Agent>
      <dc:title>Matplotlib v3.10.7, https://matplotlib.org/</dc:title>
     </cc:Agent>
    </dc:creator>
   </cc:Work>
  </rdf:RDF>
 </metadata>
 <defs>
  <style type="text/css">*{stroke-linejoin: round; stroke-linecap: butt}</style>
 </defs>
 <g id="figure_1">
  <g id="patch_1">
   <path d="M 0 564.616376 
L 996.599062 564.616376 
L 996.599062 0 
L 0 0 
z
" style="fill: #ffffff"/>
  </g>
  <g id="axes_1">
   <g id="patch_2">
    <path d="M 61.049063 489.988751 
L 989.399063 489.988751 
L 989.399063 36.470625 
L 61.049063 36.470625 
z
" style="fill: #ffffff"/>
   </g>
   <g id="matplotlib.axis_1">
    <g id="xtick_1">
     <g id="line2d_1">
      <path d="M 147.333968 489.988751 
L 147.333968 36.470625 
" clip-path="url(#pdda98b50c0)" style="fill: none; stroke-dasharray: 2.96,1.28; stroke-dashoffset: 0; stroke: #808080; stroke-opacity: 0.3; stroke-width: 0.8"/>
     </g>
     <g id="line2d_2"/>
     <g id="text_1">
      <!-- 空箱调运总成本 -->
      <g style="fill: #262626" transform="translate(103.320437 541.239451) rotate(-45) scale(0.11 -0.11)">
       <defs>
        <path id="TimesNewRomanPSMT-7a7a" d="M 888 0 
L 888 4000 
L 4088 4000 
L 4088 0 
L 888 0 
z
M 988 100 
L 3988 100 
L 3988 3900 
L 988 3900 
L 988 100 
z
" transform="scale(0.015625)"/>
        <path id="TimesNewRomanPSMT-7bb1" d="M 888 0 
L 888 4000 
L 4088 4000 
L 4088 0 
L 888 0 
z
M 988 100 
L 3988 100 
L 3988 3900 
L 988 3900 
L 988 100 
z
" transform="scale(0.015625)"/>
        <path id="TimesNewRomanPSMT-8c03" d="M 888 0 
L 888 4000 
L 4088 4000 
L 4088 0 
L 888 0 
z
M 988 100 
L 3988 100 
L 3988 3900 
L 988 3900 
L 988 100 
z
" transform="scale(0.015625)"/>
        <path id="TimesNewRomanPSMT-8fd0" d="M 888 0 
L 888 4000 
L 4088 4000 
L 4088 0 
L 888 0 
z
M 988 100 
L 3988 100 
L 3988 3900 
L 988 3900 
L 988 100 
z
" transform="scale(0.015625)"/>
        <path id="TimesNewRomanPSMT-603b" d="M 888 0 
L 888 4000 
L 4088 4000 
L 4088 0 
L 888 0 
z
M 988 100 
L 3988 100 
L 3988 3900 
L 988 3900 
L 988 100 
z
" transform="scale(0.015625)"/>
        <path id="TimesNewRomanPSMT-6210" d="M 888 0 
L 888 4000 
L 4088 4000 
L 4088 0 
L 888 0 
z
M 988 100 
L 3988 100 
L 3988 3900 
L 988 3900 
L 988 100 
z
" transform="scale(0.015625)"/>
        <path id="TimesNewRomanPSMT-672c" d="M 888 0 
L 888 4000 
L 4088 4000 
L 4088 0 
L 888 0 
z
M 988 100 
L 3988 100 
L 3988 3900 
L 988 3900 
L 988 100 
z
" transform="scale(0.015625)"/>
       </defs>
       <use xlink:href="#TimesNewRomanPSMT-7a7a"/>
       <use xlink:href="#TimesNewRomanPSMT-7bb1" transform="translate(77.783203 0)"/>
       <use xlink:href="#TimesNewRomanPSMT-8c03" transform="translate(155.566406 0)"/>
       <use xlink:href="#TimesNewRomanPSMT-8fd0" transform="translate(233.349609 0)"/>
       <use xlink:href="#TimesNewRomanPSMT-603b" transform="translate(311.132812 0)"/>
       <use xlink:href="#TimesNewRomanPSMT-6210" transform="translate(388.916016 0)"/>
       <use xlink:href="#TimesNewRomanPSMT-672c" transform="translate(466.699219 0)"/>
      </g>
     </g>
    </g>
    <g id="xtick_2">
     <g id="line2d_3">
      <path d="M 273.297333 489.988751 
L 273.297333 36.470625 
" clip-path="url(#pdda98b50c0)" style="fill: none; stroke-dasharray: 2.96,1.28; stroke-dashoffset: 0; stroke: #808080; stroke-opacity: 0.3; stroke-width: 0.8"/>
     </g>
     <g id="line2d_4"/>
     <g id="text_2">
      <!-- 海港间调运 -->
      <g style="fill: #262626" transform="translate(241.383725 529.139528) rotate(-45) scale(0.11 -0.11)">
       <defs>
        <path id="TimesNewRomanPSMT-6d77" d="M 888 0 
L 888 4000 
L 4088 4000 
L 4088 0 
L 888 0 
z
M 988 100 
L 3988 100 
L 3988 3900 
L 988 3900 
L 988 100 
z
" transform="scale(0.015625)"/>
        <path id="TimesNewRomanPSMT-6e2f" d="M 888 0 
L 888 4000 
L 4088 4000 
L 4088 0 
L 888 0 
z
M 988 100 
L 3988 100 
L 3988 3900 
L 988 3900 
L 988 100 
z
" transform="scale(0.015625)"/>
        <path id="TimesNewRomanPSMT-95f4" d="M 888 0 
L 888 4000 
L 4088 4000 
L 4088 0 
L 888 0 
z
M 988 100 
L 3988 100 
L 3988 3900 
L 988 3900 
L 988 100 
z
" transform="scale(0.015625)"/>
       </defs>
       <use xlink:href="#TimesNewRomanPSMT-6d77"/>
       <use xlink:href="#TimesNewRomanPSMT-6e2f" transform="translate(77.783203 0)"/>
       <use xlink:href="#TimesNewRomanPSMT-95f4" transform="translate(155.566406 0)"/>
       <use xlink:href="#TimesNewRomanPSMT-8c03" transform="translate(233.349609 0)"/>
       <use xlink:href="#TimesNewRomanPSMT-8fd0" transform="translate(311.132812 0)"/>
      </g>
     </g>
    </g>
    <g id="xtick_3">
     <g id="line2d_5">
      <path d="M 399.260698 489.988751 
L 399.260698 36.470625 
" clip-path="url(#pdda98b50c0)" style="fill: none; stroke-dasharray: 2.96,1.28; stroke-dashoffset: 0; stroke: #808080; stroke-opacity: 0.3; stroke-width: 0.8"/>
     </g>
     <g id="line2d_6"/>
     <g id="text_3">
      <!-- 海港至陆港 -->
      <g style="fill: #262626" transform="translate(367.34709 529.139528) rotate(-45) scale(0.11 -0.11)">
       <defs>
        <path id="TimesNewRomanPSMT-81f3" d="M 888 0 
L 888 4000 
L 4088 4000 
L 4088 0 
L 888 0 
z
M 988 100 
L 3988 100 
L 3988 3900 
L 988 3900 
L 988 100 
z
" transform="scale(0.015625)"/>
        <path id="TimesNewRomanPSMT-9646" d="M 888 0 
L 888 4000 
L 4088 4000 
L 4088 0 
L 888 0 
z
M 988 100 
L 3988 100 
L 3988 3900 
L 988 3900 
L 988 100 
z
" transform="scale(0.015625)"/>
       </defs>
       <use xlink:href="#TimesNewRomanPSMT-6d77"/>
       <use xlink:href="#TimesNewRomanPSMT-6e2f" transform="translate(77.783203 0)"/>
       <use xlink:href="#TimesNewRomanPSMT-81f3" transform="translate(155.566406 0)"/>
       <use xlink:href="#TimesNewRomanPSMT-9646" transform="translate(233.349609 0)"/>
       <use xlink:href="#TimesNewRomanPSMT-6e2f" transform="translate(311.132812 0)"/>
      </g>
     </g>
    </g>
    <g id="xtick_4">
     <g id="line2d_7">
      <path d="M 525.224063 489.988751 
L 525.224063 36.470625 
" clip-path="url(#pdda98b50c0)" style="fill: none; stroke-dasharray: 2.96,1.28; stroke-dashoffset: 0; stroke: #808080; stroke-opacity: 0.3; stroke-width: 0.8"/>
     </g>
     <g id="line2d_8"/>
     <g id="text_4">
      <!-- 陆港间调运 -->
      <g style="fill: #262626" transform="translate(493.310455 529.139528) rotate(-45) scale(0.11 -0.11)">
       <use xlink:href="#TimesNewRomanPSMT-9646"/>
       <use xlink:href="#TimesNewRomanPSMT-6e2f" transform="translate(77.783203 0)"/>
       <use xlink:href="#TimesNewRomanPSMT-95f4" transform="translate(155.566406 0)"/>
       <use xlink:href="#TimesNewRomanPSMT-8c03" transform="translate(233.349609 0)"/>
       <use xlink:href="#TimesNewRomanPSMT-8fd0" transform="translate(311.132812 0)"/>
      </g>
     </g>
    </g>
    <g id="xtick_5">
     <g id="line2d_9">
      <path d="M 651.187427 489.988751 
L 651.187427 36.470625 
" clip-path="url(#pdda98b50c0)" style="fill: none; stroke-dasharray: 2.96,1.28; stroke-dashoffset: 0; stroke: #808080; stroke-opacity: 0.3; stroke-width: 0.8"/>
     </g>
     <g id="line2d_10"/>
     <g id="text_5">
      <!-- 空箱持有成本 -->
      <g style="fill: #262626" transform="translate(613.223859 535.189489) rotate(-45) scale(0.11 -0.11)">
       <defs>
        <path id="TimesNewRomanPSMT-6301" d="M 888 0 
L 888 4000 
L 4088 4000 
L 4088 0 
L 888 0 
z
M 988 100 
L 3988 100 
L 3988 3900 
L 988 3900 
L 988 100 
z
" transform="scale(0.015625)"/>
        <path id="TimesNewRomanPSMT-6709" d="M 888 0 
L 888 4000 
L 4088 4000 
L 4088 0 
L 888 0 
z
M 988 100 
L 3988 100 
L 3988 3900 
L 988 3900 
L 988 100 
z
" transform="scale(0.015625)"/>
       </defs>
       <use xlink:href="#TimesNewRomanPSMT-7a7a"/>
       <use xlink:href="#TimesNewRomanPSMT-7bb1" transform="translate(77.783203 0)"/>
       <use xlink:href="#TimesNewRomanPSMT-6301" transform="translate(155.566406 0)"/>
       <use xlink:href="#TimesNewRomanPSMT-6709" transform="translate(233.349609 0)"/>
       <use xlink:href="#TimesNewRomanPSMT-6210" transform="translate(311.132812 0)"/>
       <use xlink:href="#TimesNewRomanPSMT-672c" transform="translate(388.916016 0)"/>
      </g>
     </g>
    </g>
    <g id="xtick_6">
     <g id="line2d_11">
      <path d="M 777.150792 489.988751 
L 777.150792 36.470625 
" clip-path="url(#pdda98b50c0)" style="fill: none; stroke-dasharray: 2.96,1.28; stroke-dashoffset: 0; stroke: #808080; stroke-opacity: 0.3; stroke-width: 0.8"/>
     </g>
     <g id="line2d_12"/>
     <g id="text_6">
      <!-- 空箱租赁成本 -->
      <g style="fill: #262626" transform="translate(739.187224 535.189489) rotate(-45) scale(0.11 -0.11)">
       <defs>
        <path id="TimesNewRomanPSMT-79df" d="M 888 0 
L 888 4000 
L 4088 4000 
L 4088 0 
L 888 0 
z
M 988 100 
L 3988 100 
L 3988 3900 
L 988 3900 
L 988 100 
z
" transform="scale(0.015625)"/>
        <path id="TimesNewRomanPSMT-8d41" d="M 888 0 
L 888 4000 
L 4088 4000 
L 4088 0 
L 888 0 
z
M 988 100 
L 3988 100 
L 3988 3900 
L 988 3900 
L 988 100 
z
" transform="scale(0.015625)"/>
       </defs>
       <use xlink:href="#TimesNewRomanPSMT-7a7a"/>
       <use xlink:href="#TimesNewRomanPSMT-7bb1" transform="translate(77.783203 0)"/>
       <use xlink:href="#TimesNewRomanPSMT-79df" transform="translate(155.566406 0)"/>
       <use xlink:href="#TimesNewRomanPSMT-8d41" transform="translate(233.349609 0)"/>
       <use xlink:href="#TimesNewRomanPSMT-6210" transform="translate(311.132812 0)"/>
       <use xlink:href="#TimesNewRomanPSMT-672c" transform="translate(388.916016 0)"/>
      </g>
     </g>
    </g>
    <g id="xtick_7">
     <g id="line2d_13">
      <path d="M 903.114157 489.988751 
L 903.114157 36.470625 
" clip-path="url(#pdda98b50c0)" style="fill: none; stroke-dasharray: 2.96,1.28; stroke-dashoffset: 0; stroke: #808080; stroke-opacity: 0.3; stroke-width: 0.8"/>
     </g>
     <g id="line2d_14"/>
     <g id="text_7">
      <!-- 总成本 -->
      <g style="fill: #262626" transform="translate(883.300473 517.039605) rotate(-45) scale(0.11 -0.11)">
       <use xlink:href="#TimesNewRomanPSMT-603b"/>
       <use xlink:href="#TimesNewRomanPSMT-6210" transform="translate(77.783203 0)"/>
       <use xlink:href="#TimesNewRomanPSMT-672c" transform="translate(155.566406 0)"/>
      </g>
     </g>
    </g>
    <g id="text_8">
     <!-- 成本类别 -->
     <g style="fill: #262626" transform="translate(506.556563 554.849501) scale(0.12 -0.12)">
      <defs>
       <path id="TimesNewRomanPS-BoldMT-6210" d="M 888 0 
L 888 4000 
L 4088 4000 
L 4088 0 
L 888 0 
z
M 988 100 
L 3988 100 
L 3988 3900 
L 988 3900 
L 988 100 
z
" transform="scale(0.015625)"/>
       <path id="TimesNewRomanPS-BoldMT-672c" d="M 888 0 
L 888 4000 
L 4088 4000 
L 4088 0 
L 888 0 
z
M 988 100 
L 3988 100 
L 3988 3900 
L 988 3900 
L 988 100 
z
" transform="scale(0.015625)"/>
       <path id="TimesNewRomanPS-BoldMT-7c7b" d="M 888 0 
L 888 4000 
L 4088 4000 
L 4088 0 
L 888 0 
z
M 988 100 
L 3988 100 
L 3988 3900 
L 988 3900 
L 988 100 
z
" transform="scale(0.015625)"/>
       <path id="TimesNewRomanPS-BoldMT-522b" d="M 888 0 
L 888 4000 
L 4088 4000 
L 4088 0 
L 888 0 
z
M 988 100 
L 3988 100 
L 3988 3900 
L 988 3900 
L 988 100 
z
" transform="scale(0.015625)"/>
      </defs>
      <use xlink:href="#TimesNewRomanPS-BoldMT-6210"/>
      <use xlink:href="#TimesNewRomanPS-BoldMT-672c" transform="translate(77.783203 0)"/>
      <use xlink:href="#TimesNewRomanPS-BoldMT-7c7b" transform="translate(155.566406 0)"/>
      <use xlink:href="#TimesNewRomanPS-BoldMT-522b" transform="translate(233.349609 0)"/>
     </g>
    </g>
   </g>
   <g id="matplotlib.axis_2">
    <g id="ytick_1">
     <g id="line2d_15">
      <path d="M 61.049063 489.988751 
L 989.399063 489.988751 
" clip-path="url(#pdda98b50c0)" style="fill: none; stroke-dasharray: 2.96,1.28; stroke-dashoffset: 0; stroke: #808080; stroke-opacity: 0.3; stroke-width: 0.8"/>
     </g>
     <g id="line2d_16"/>
     <g id="text_9">
      <!-- 0.0e+00 -->
      <g style="fill: #262626" transform="translate(21.713125 493.807813) scale(0.11 -0.11)">
       <defs>
        <path id="TimesNewRomanPSMT-30" d="M 231 2094 
Q 231 2819 450 3342 
Q 669 3866 1031 4122 
Q 1313 4325 1613 4325 
Q 2100 4325 2488 3828 
Q 2972 3213 2972 2159 
Q 2972 1422 2759 906 
Q 2547 391 2217 158 
Q 1888 -75 1581 -75 
Q 975 -75 572 641 
Q 231 1244 231 2094 
z
M 844 2016 
Q 844 1141 1059 588 
Q 1238 122 1591 122 
Q 1759 122 1940 273 
Q 2122 425 2216 781 
Q 2359 1319 2359 2297 
Q 2359 3022 2209 3506 
Q 2097 3866 1919 4016 
Q 1791 4119 1609 4119 
Q 1397 4119 1231 3928 
Q 1006 3669 925 3112 
Q 844 2556 844 2016 
z
" transform="scale(0.015625)"/>
        <path id="TimesNewRomanPSMT-2e" d="M 800 606 
Q 947 606 1047 504 
Q 1147 403 1147 259 
Q 1147 116 1045 14 
Q 944 -88 800 -88 
Q 656 -88 554 14 
Q 453 116 453 259 
Q 453 406 554 506 
Q 656 606 800 606 
z
" transform="scale(0.015625)"/>
        <path id="TimesNewRomanPSMT-65" d="M 681 1784 
Q 678 1147 991 784 
Q 1303 422 1725 422 
Q 2006 422 2214 576 
Q 2422 731 2563 1106 
L 2659 1044 
Q 2594 616 2278 264 
Q 1963 -88 1488 -88 
Q 972 -88 605 314 
Q 238 716 238 1394 
Q 238 2128 614 2539 
Q 991 2950 1559 2950 
Q 2041 2950 2350 2633 
Q 2659 2316 2659 1784 
L 681 1784 
z
M 681 1966 
L 2006 1966 
Q 1991 2241 1941 2353 
Q 1863 2528 1708 2628 
Q 1553 2728 1384 2728 
Q 1125 2728 920 2526 
Q 716 2325 681 1966 
z
" transform="scale(0.015625)"/>
        <path id="TimesNewRomanPSMT-2b" d="M 1672 441 
L 1672 2000 
L 116 2000 
L 116 2256 
L 1672 2256 
L 1672 3809 
L 1922 3809 
L 1922 2256 
L 3484 2256 
L 3484 2000 
L 1922 2000 
L 1922 441 
L 1672 441 
z
" transform="scale(0.015625)"/>
       </defs>
       <use xlink:href="#TimesNewRomanPSMT-30"/>
       <use xlink:href="#TimesNewRomanPSMT-2e" transform="translate(50 0)"/>
       <use xlink:href="#TimesNewRomanPSMT-30" transform="translate(75 0)"/>
       <use xlink:href="#TimesNewRomanPSMT-65" transform="translate(125 0)"/>
       <use xlink:href="#TimesNewRomanPSMT-2b" transform="translate(169.384766 0)"/>
       <use xlink:href="#TimesNewRomanPSMT-30" transform="translate(225.78125 0)"/>
       <use xlink:href="#TimesNewRomanPSMT-30" transform="translate(275.78125 0)"/>
      </g>
     </g>
    </g>
    <g id="ytick_2">
     <g id="line2d_17">
      <path d="M 61.049063 431.796766 
L 989.399063 431.796766 
" clip-path="url(#pdda98b50c0)" style="fill: none; stroke-dasharray: 2.96,1.28; stroke-dashoffset: 0; stroke: #808080; stroke-opacity: 0.3; stroke-width: 0.8"/>
     </g>
     <g id="line2d_18"/>
     <g id="text_10">
      <!-- 2.0e+05 -->
      <g style="fill: #262626" transform="translate(21.713125 435.615829) scale(0.11 -0.11)">
       <defs>
        <path id="TimesNewRomanPSMT-32" d="M 2934 816 
L 2638 0 
L 138 0 
L 138 116 
Q 1241 1122 1691 1759 
Q 2141 2397 2141 2925 
Q 2141 3328 1894 3587 
Q 1647 3847 1303 3847 
Q 991 3847 742 3664 
Q 494 3481 375 3128 
L 259 3128 
Q 338 3706 661 4015 
Q 984 4325 1469 4325 
Q 1984 4325 2329 3994 
Q 2675 3663 2675 3213 
Q 2675 2891 2525 2569 
Q 2294 2063 1775 1497 
Q 997 647 803 472 
L 1909 472 
Q 2247 472 2383 497 
Q 2519 522 2628 598 
Q 2738 675 2819 816 
L 2934 816 
z
" transform="scale(0.015625)"/>
        <path id="TimesNewRomanPSMT-35" d="M 2778 4238 
L 2534 3706 
L 1259 3706 
L 981 3138 
Q 1809 3016 2294 2522 
Q 2709 2097 2709 1522 
Q 2709 1188 2573 903 
Q 2438 619 2231 419 
Q 2025 219 1772 97 
Q 1413 -75 1034 -75 
Q 653 -75 479 54 
Q 306 184 306 341 
Q 306 428 378 495 
Q 450 563 559 563 
Q 641 563 702 538 
Q 763 513 909 409 
Q 1144 247 1384 247 
Q 1750 247 2026 523 
Q 2303 800 2303 1197 
Q 2303 1581 2056 1914 
Q 1809 2247 1375 2428 
Q 1034 2569 447 2591 
L 1259 4238 
L 2778 4238 
z
" transform="scale(0.015625)"/>
       </defs>
       <use xlink:href="#TimesNewRomanPSMT-32"/>
       <use xlink:href="#TimesNewRomanPSMT-2e" transform="translate(50 0)"/>
       <use xlink:href="#TimesNewRomanPSMT-30" transform="translate(75 0)"/>
       <use xlink:href="#TimesNewRomanPSMT-65" transform="translate(125 0)"/>
       <use xlink:href="#TimesNewRomanPSMT-2b" transform="translate(169.384766 0)"/>
       <use xlink:href="#TimesNewRomanPSMT-30" transform="translate(225.78125 0)"/>
       <use xlink:href="#TimesNewRomanPSMT-35" transform="translate(275.78125 0)"/>
      </g>
     </g>
    </g>
    <g id="ytick_3">
     <g id="line2d_19">
      <path d="M 61.049063 373.604782 
L 989.399063 373.604782 
" clip-path="url(#pdda98b50c0)" style="fill: none; stroke-dasharray: 2.96,1.28; stroke-dashoffset: 0; stroke: #808080; stroke-opacity: 0.3; stroke-width: 0.8"/>
     </g>
     <g id="line2d_20"/>
     <g id="text_11">
      <!-- 4.0e+05 -->
      <g style="fill: #262626" transform="translate(21.713125 377.423844) scale(0.11 -0.11)">
       <defs>
        <path id="TimesNewRomanPSMT-34" d="M 2978 1563 
L 2978 1119 
L 2409 1119 
L 2409 0 
L 1894 0 
L 1894 1119 
L 100 1119 
L 100 1519 
L 2066 4325 
L 2409 4325 
L 2409 1563 
L 2978 1563 
z
M 1894 1563 
L 1894 3666 
L 406 1563 
L 1894 1563 
z
" transform="scale(0.015625)"/>
       </defs>
       <use xlink:href="#TimesNewRomanPSMT-34"/>
       <use xlink:href="#TimesNewRomanPSMT-2e" transform="translate(50 0)"/>
       <use xlink:href="#TimesNewRomanPSMT-30" transform="translate(75 0)"/>
       <use xlink:href="#TimesNewRomanPSMT-65" transform="translate(125 0)"/>
       <use xlink:href="#TimesNewRomanPSMT-2b" transform="translate(169.384766 0)"/>
       <use xlink:href="#TimesNewRomanPSMT-30" transform="translate(225.78125 0)"/>
       <use xlink:href="#TimesNewRomanPSMT-35" transform="translate(275.78125 0)"/>
      </g>
     </g>
    </g>
    <g id="ytick_4">
     <g id="line2d_21">
      <path d="M 61.049063 315.412797 
L 989.399063 315.412797 
" clip-path="url(#pdda98b50c0)" style="fill: none; stroke-dasharray: 2.96,1.28; stroke-dashoffset: 0; stroke: #808080; stroke-opacity: 0.3; stroke-width: 0.8"/>
     </g>
     <g id="line2d_22"/>
     <g id="text_12">
      <!-- 6.0e+05 -->
      <g style="fill: #262626" transform="translate(21.713125 319.23186) scale(0.11 -0.11)">
       <defs>
        <path id="TimesNewRomanPSMT-36" d="M 2869 4325 
L 2869 4209 
Q 2456 4169 2195 4045 
Q 1934 3922 1679 3669 
Q 1425 3416 1258 3105 
Q 1091 2794 978 2366 
Q 1428 2675 1881 2675 
Q 2316 2675 2634 2325 
Q 2953 1975 2953 1425 
Q 2953 894 2631 456 
Q 2244 -75 1606 -75 
Q 1172 -75 869 213 
Q 275 772 275 1663 
Q 275 2231 503 2743 
Q 731 3256 1154 3653 
Q 1578 4050 1965 4187 
Q 2353 4325 2688 4325 
L 2869 4325 
z
M 925 2138 
Q 869 1716 869 1456 
Q 869 1156 980 804 
Q 1091 453 1309 247 
Q 1469 100 1697 100 
Q 1969 100 2183 356 
Q 2397 613 2397 1088 
Q 2397 1622 2184 2012 
Q 1972 2403 1581 2403 
Q 1463 2403 1327 2353 
Q 1191 2303 925 2138 
z
" transform="scale(0.015625)"/>
       </defs>
       <use xlink:href="#TimesNewRomanPSMT-36"/>
       <use xlink:href="#TimesNewRomanPSMT-2e" transform="translate(50 0)"/>
       <use xlink:href="#TimesNewRomanPSMT-30" transform="translate(75 0)"/>
       <use xlink:href="#TimesNewRomanPSMT-65" transform="translate(125 0)"/>
       <use xlink:href="#TimesNewRomanPSMT-2b" transform="translate(169.384766 0)"/>
       <use xlink:href="#TimesNewRomanPSMT-30" transform="translate(225.78125 0)"/>
       <use xlink:href="#TimesNewRomanPSMT-35" transform="translate(275.78125 0)"/>
      </g>
     </g>
    </g>
    <g id="ytick_5">
     <g id="line2d_23">
      <path d="M 61.049063 257.220813 
L 989.399063 257.220813 
" clip-path="url(#pdda98b50c0)" style="fill: none; stroke-dasharray: 2.96,1.28; stroke-dashoffset: 0; stroke: #808080; stroke-opacity: 0.3; stroke-width: 0.8"/>
     </g>
     <g id="line2d_24"/>
     <g id="text_13">
      <!-- 8.0e+05 -->
      <g style="fill: #262626" transform="translate(21.713125 261.039875) scale(0.11 -0.11)">
       <defs>
        <path id="TimesNewRomanPSMT-38" d="M 1228 2134 
Q 725 2547 579 2797 
Q 434 3047 434 3316 
Q 434 3728 753 4026 
Q 1072 4325 1600 4325 
Q 2113 4325 2425 4047 
Q 2738 3769 2738 3413 
Q 2738 3175 2569 2928 
Q 2400 2681 1866 2347 
Q 2416 1922 2594 1678 
Q 2831 1359 2831 1006 
Q 2831 559 2490 242 
Q 2150 -75 1597 -75 
Q 994 -75 656 303 
Q 388 606 388 966 
Q 388 1247 577 1523 
Q 766 1800 1228 2134 
z
M 1719 2469 
Q 2094 2806 2194 3001 
Q 2294 3197 2294 3444 
Q 2294 3772 2109 3958 
Q 1925 4144 1606 4144 
Q 1288 4144 1088 3959 
Q 888 3775 888 3528 
Q 888 3366 970 3203 
Q 1053 3041 1206 2894 
L 1719 2469 
z
M 1375 2016 
Q 1116 1797 991 1539 
Q 866 1281 866 981 
Q 866 578 1086 336 
Q 1306 94 1647 94 
Q 1984 94 2187 284 
Q 2391 475 2391 747 
Q 2391 972 2272 1150 
Q 2050 1481 1375 2016 
z
" transform="scale(0.015625)"/>
       </defs>
       <use xlink:href="#TimesNewRomanPSMT-38"/>
       <use xlink:href="#TimesNewRomanPSMT-2e" transform="translate(50 0)"/>
       <use xlink:href="#TimesNewRomanPSMT-30" transform="translate(75 0)"/>
       <use xlink:href="#TimesNewRomanPSMT-65" transform="translate(125 0)"/>
       <use xlink:href="#TimesNewRomanPSMT-2b" transform="translate(169.384766 0)"/>
       <use xlink:href="#TimesNewRomanPSMT-30" transform="translate(225.78125 0)"/>
       <use xlink:href="#TimesNewRomanPSMT-35" transform="translate(275.78125 0)"/>
      </g>
     </g>
    </g>
    <g id="ytick_6">
     <g id="line2d_25">
      <path d="M 61.049063 199.028828 
L 989.399063 199.028828 
" clip-path="url(#pdda98b50c0)" style="fill: none; stroke-dasharray: 2.96,1.28; stroke-dashoffset: 0; stroke: #808080; stroke-opacity: 0.3; stroke-width: 0.8"/>
     </g>
     <g id="line2d_26"/>
     <g id="text_14">
      <!-- 1.0e+06 -->
      <g style="fill: #262626" transform="translate(21.713125 202.847891) scale(0.11 -0.11)">
       <defs>
        <path id="TimesNewRomanPSMT-31" d="M 750 3822 
L 1781 4325 
L 1884 4325 
L 1884 747 
Q 1884 391 1914 303 
Q 1944 216 2037 169 
Q 2131 122 2419 116 
L 2419 0 
L 825 0 
L 825 116 
Q 1125 122 1212 167 
Q 1300 213 1334 289 
Q 1369 366 1369 747 
L 1369 3034 
Q 1369 3497 1338 3628 
Q 1316 3728 1258 3775 
Q 1200 3822 1119 3822 
Q 1003 3822 797 3725 
L 750 3822 
z
" transform="scale(0.015625)"/>
       </defs>
       <use xlink:href="#TimesNewRomanPSMT-31"/>
       <use xlink:href="#TimesNewRomanPSMT-2e" transform="translate(50 0)"/>
       <use xlink:href="#TimesNewRomanPSMT-30" transform="translate(75 0)"/>
       <use xlink:href="#TimesNewRomanPSMT-65" transform="translate(125 0)"/>
       <use xlink:href="#TimesNewRomanPSMT-2b" transform="translate(169.384766 0)"/>
       <use xlink:href="#TimesNewRomanPSMT-30" transform="translate(225.78125 0)"/>
       <use xlink:href="#TimesNewRomanPSMT-36" transform="translate(275.78125 0)"/>
      </g>
     </g>
    </g>
    <g id="ytick_7">
     <g id="line2d_27">
      <path d="M 61.049063 140.836844 
L 989.399063 140.836844 
" clip-path="url(#pdda98b50c0)" style="fill: none; stroke-dasharray: 2.96,1.28; stroke-dashoffset: 0; stroke: #808080; stroke-opacity: 0.3; stroke-width: 0.8"/>
     </g>
     <g id="line2d_28"/>
     <g id="text_15">
      <!-- 1.2e+06 -->
      <g style="fill: #262626" transform="translate(21.713125 144.655906) scale(0.11 -0.11)">
       <use xlink:href="#TimesNewRomanPSMT-31"/>
       <use xlink:href="#TimesNewRomanPSMT-2e" transform="translate(50 0)"/>
       <use xlink:href="#TimesNewRomanPSMT-32" transform="translate(75 0)"/>
       <use xlink:href="#TimesNewRomanPSMT-65" transform="translate(125 0)"/>
       <use xlink:href="#TimesNewRomanPSMT-2b" transform="translate(169.384766 0)"/>
       <use xlink:href="#TimesNewRomanPSMT-30" transform="translate(225.78125 0)"/>
       <use xlink:href="#TimesNewRomanPSMT-36" transform="translate(275.78125 0)"/>
      </g>
     </g>
    </g>
    <g id="ytick_8">
     <g id="line2d_29">
      <path d="M 61.049063 82.644859 
L 989.399063 82.644859 
" clip-path="url(#pdda98b50c0)" style="fill: none; stroke-dasharray: 2.96,1.28; stroke-dashoffset: 0; stroke: #808080; stroke-opacity: 0.3; stroke-width: 0.8"/>
     </g>
     <g id="line2d_30"/>
     <g id="text_16">
      <!-- 1.4e+06 -->
      <g style="fill: #262626" transform="translate(21.713125 86.463922) scale(0.11 -0.11)">
       <use xlink:href="#TimesNewRomanPSMT-31"/>
       <use xlink:href="#TimesNewRomanPSMT-2e" transform="translate(50 0)"/>
       <use xlink:href="#TimesNewRomanPSMT-34" transform="translate(75 0)"/>
       <use xlink:href="#TimesNewRomanPSMT-65" transform="translate(125 0)"/>
       <use xlink:href="#TimesNewRomanPSMT-2b" transform="translate(169.384766 0)"/>
       <use xlink:href="#TimesNewRomanPSMT-30" transform="translate(225.78125 0)"/>
       <use xlink:href="#TimesNewRomanPSMT-36" transform="translate(275.78125 0)"/>
      </g>
     </g>
    </g>
    <g id="text_17">
     <!-- 成本（元） -->
     <g style="fill: #262626" transform="translate(15.14625 286.564063) rotate(-90) scale(0.12 -0.12)">
      <defs>
       <path id="TimesNewRomanPS-BoldMT-ff08" d="M 888 0 
L 888 4000 
L 4088 4000 
L 4088 0 
L 888 0 
z
M 988 100 
L 3988 100 
L 3988 3900 
L 988 3900 
L 988 100 
z
" transform="scale(0.015625)"/>
       <path id="TimesNewRomanPS-BoldMT-5143" d="M 888 0 
L 888 4000 
L 4088 4000 
L 4088 0 
L 888 0 
z
M 988 100 
L 3988 100 
L 3988 3900 
L 988 3900 
L 988 100 
z
" transform="scale(0.015625)"/>
       <path id="TimesNewRomanPS-BoldMT-ff09" d="M 888 0 
L 888 4000 
L 4088 4000 
L 4088 0 
L 888 0 
z
M 988 100 
L 3988 100 
L 3988 3900 
L 988 3900 
L 988 100 
z
" transform="scale(0.015625)"/>
      </defs>
      <use xlink:href="#TimesNewRomanPS-BoldMT-6210"/>
      <use xlink:href="#TimesNewRomanPS-BoldMT-672c" transform="translate(77.783203 0)"/>
      <use xlink:href="#TimesNewRomanPS-BoldMT-ff08" transform="translate(155.566406 0)"/>
      <use xlink:href="#TimesNewRomanPS-BoldMT-5143" transform="translate(233.349609 0)"/>
      <use xlink:href="#TimesNewRomanPS-BoldMT-ff09" transform="translate(311.132812 0)"/>
     </g>
    </g>
   </g>
   <g id="patch_3">
    <path d="M 103.24679 489.988751 
L 147.333968 489.988751 
L 147.333968 267.705262 
L 103.24679 267.705262 
z
" clip-path="url(#pdda98b50c0)" style="fill: #2e86ab; opacity: 0.8; stroke: #000000; stroke-width: 1.2; stroke-linejoin: miter"/>
   </g>
   <g id="patch_4">
    <path d="M 229.210155 489.988751 
L 273.297333 489.988751 
L 273.297333 473.026951 
L 229.210155 473.026951 
z
" clip-path="url(#pdda98b50c0)" style="fill: #2e86ab; opacity: 0.8; stroke: #000000; stroke-width: 1.2; stroke-linejoin: miter"/>
   </g>
   <g id="patch_5">
    <path d="M 355.17352 489.988751 
L 399.260698 489.988751 
L 399.260698 316.881563 
L 355.17352 316.881563 
z
" clip-path="url(#pdda98b50c0)" style="fill: #2e86ab; opacity: 0.8; stroke: #000000; stroke-width: 1.2; stroke-linejoin: miter"/>
   </g>
   <g id="patch_6">
    <path d="M 481.136885 489.988751 
L 525.224063 489.988751 
L 525.224063 457.77425 
L 481.136885 457.77425 
z
" clip-path="url(#pdda98b50c0)" style="fill: #2e86ab; opacity: 0.8; stroke: #000000; stroke-width: 1.2; stroke-linejoin: miter"/>
   </g>
   <g id="patch_7">
    <path d="M 607.10025 489.988751 
L 651.187427 489.988751 
L 651.187427 481.006818 
L 607.10025 481.006818 
z
" clip-path="url(#pdda98b50c0)" style="fill: #2e86ab; opacity: 0.8; stroke: #000000; stroke-width: 1.2; stroke-linejoin: miter"/>
   </g>
   <g id="patch_8">
    <path d="M 733.063615 489.988751 
L 777.150792 489.988751 
L 777.150792 374.914101 
L 733.063615 374.914101 
z
" clip-path="url(#pdda98b50c0)" style="fill: #2e86ab; opacity: 0.8; stroke: #000000; stroke-width: 1.2; stroke-linejoin: miter"/>
   </g>
   <g id="patch_9">
    <path d="M 859.02698 489.988751 
L 903.114157 489.988751 
L 903.114157 143.64868 
L 859.02698 143.64868 
z
" clip-path="url(#pdda98b50c0)" style="fill: #2e86ab; opacity: 0.8; stroke: #000000; stroke-width: 1.2; stroke-linejoin: miter"/>
   </g>
   <g id="patch_10">
    <path d="M 147.333968 489.988751 
L 191.421145 489.988751 
L 191.421145 220.781574 
L 147.333968 220.781574 
z
" clip-path="url(#pdda98b50c0)" style="fill: #a23b72; opacity: 0.8; stroke: #000000; stroke-width: 1.2; stroke-linejoin: miter"/>
   </g>
   <g id="patch_11">
    <path d="M 273.297333 489.988751 
L 317.38451 489.988751 
L 317.38451 472.43572 
L 273.297333 472.43572 
z
" clip-path="url(#pdda98b50c0)" style="fill: #a23b72; opacity: 0.8; stroke: #000000; stroke-width: 1.2; stroke-linejoin: miter"/>
   </g>
   <g id="patch_12">
    <path d="M 399.260698 489.988751 
L 443.347875 489.988751 
L 443.347875 238.334604 
L 399.260698 238.334604 
z
" clip-path="url(#pdda98b50c0)" style="fill: #a23b72; opacity: 0.8; stroke: #000000; stroke-width: 1.2; stroke-linejoin: miter"/>
   </g>
   <g id="patch_13">
    <path d="M 525.224063 489.988751 
L 569.31124 489.988751 
L 569.31124 489.988751 
L 525.224063 489.988751 
z
" clip-path="url(#pdda98b50c0)" style="fill: #a23b72; opacity: 0.8; stroke: #000000; stroke-width: 1.2; stroke-linejoin: miter"/>
   </g>
   <g id="patch_14">
    <path d="M 651.187427 489.988751 
L 695.274605 489.988751 
L 695.274605 482.962068 
L 651.187427 482.962068 
z
" clip-path="url(#pdda98b50c0)" style="fill: #a23b72; opacity: 0.8; stroke: #000000; stroke-width: 1.2; stroke-linejoin: miter"/>
   </g>
   <g id="patch_15">
    <path d="M 777.150792 489.988751 
L 821.23797 489.988751 
L 821.23797 371.859022 
L 777.150792 371.859022 
z
" clip-path="url(#pdda98b50c0)" style="fill: #a23b72; opacity: 0.8; stroke: #000000; stroke-width: 1.2; stroke-linejoin: miter"/>
   </g>
   <g id="patch_16">
    <path d="M 903.114157 489.988751 
L 947.201335 489.988751 
L 947.201335 95.625163 
L 903.114157 95.625163 
z
" clip-path="url(#pdda98b50c0)" style="fill: #a23b72; opacity: 0.8; stroke: #000000; stroke-width: 1.2; stroke-linejoin: miter"/>
   </g>
   <g id="patch_17">
    <path d="M 61.049063 489.988751 
L 61.049063 36.470625 
" style="fill: none; stroke: #cccccc; stroke-width: 1.2; stroke-linejoin: miter; stroke-linecap: square"/>
   </g>
   <g id="patch_18">
    <path d="M 61.049063 489.988751 
L 989.399063 489.988751 
" style="fill: none; stroke: #cccccc; stroke-width: 1.2; stroke-linejoin: miter; stroke-linecap: square"/>
   </g>
   <g id="text_18">
    <!-- 7.64e+05 -->
    <g style="fill: #262626" transform="translate(108.353504 263.557271) scale(0.09 -0.09)">
     <defs>
      <path id="TimesNewRomanPS-BoldMT-37" d="M 1134 -88 
L 2288 3409 
L 1409 3409 
Q 894 3409 634 3275 
Q 453 3181 334 2922 
L 216 2922 
L 522 4238 
L 3047 4238 
L 1625 -88 
L 1134 -88 
z
" transform="scale(0.015625)"/>
      <path id="TimesNewRomanPS-BoldMT-2e" d="M 800 963 
Q 1019 963 1170 809 
Q 1322 656 1322 441 
Q 1322 225 1169 73 
Q 1016 -78 800 -78 
Q 584 -78 432 73 
Q 281 225 281 441 
Q 281 656 432 809 
Q 584 963 800 963 
z
" transform="scale(0.015625)"/>
      <path id="TimesNewRomanPS-BoldMT-36" d="M 3006 4325 
L 3006 4238 
Q 2441 4094 2098 3867 
Q 1756 3641 1557 3317 
Q 1359 2994 1250 2516 
Q 1388 2609 1478 2638 
Q 1681 2700 1888 2700 
Q 2363 2700 2680 2354 
Q 2997 2009 2997 1413 
Q 2997 994 2825 644 
Q 2653 294 2337 103 
Q 2022 -88 1663 -88 
Q 1272 -88 940 126 
Q 609 341 423 753 
Q 238 1166 238 1650 
Q 238 2363 580 2977 
Q 922 3591 1551 3955 
Q 2181 4319 3006 4325 
z
M 1209 2263 
Q 1184 1831 1184 1631 
Q 1184 1200 1267 797 
Q 1350 394 1494 231 
Q 1597 116 1738 116 
Q 1881 116 1993 283 
Q 2106 450 2106 963 
Q 2106 1825 1897 2153 
Q 1763 2366 1534 2366 
Q 1409 2366 1209 2263 
z
" transform="scale(0.015625)"/>
      <path id="TimesNewRomanPS-BoldMT-34" d="M 159 1597 
L 2172 4325 
L 2553 4325 
L 2553 1597 
L 2941 1597 
L 2941 950 
L 2553 950 
L 2553 0 
L 1694 0 
L 1694 950 
L 159 950 
L 159 1597 
z
M 463 1597 
L 1694 1597 
L 1694 3269 
L 463 1597 
z
" transform="scale(0.015625)"/>
      <path id="TimesNewRomanPS-BoldMT-65" d="M 2691 1566 
L 1088 1566 
Q 1116 984 1397 647 
Q 1613 388 1916 388 
Q 2103 388 2256 492 
Q 2409 597 2584 869 
L 2691 800 
Q 2453 316 2165 114 
Q 1878 -88 1500 -88 
Q 850 -88 516 413 
Q 247 816 247 1413 
Q 247 2144 642 2576 
Q 1038 3009 1569 3009 
Q 2013 3009 2339 2645 
Q 2666 2281 2691 1566 
z
M 1922 1775 
Q 1922 2278 1867 2465 
Q 1813 2653 1697 2750 
Q 1631 2806 1522 2806 
Q 1359 2806 1256 2647 
Q 1072 2369 1072 1884 
L 1072 1775 
L 1922 1775 
z
" transform="scale(0.015625)"/>
      <path id="TimesNewRomanPS-BoldMT-2b" d="M 125 2325 
L 1628 2325 
L 1628 3825 
L 2038 3825 
L 2038 2325 
L 3541 2325 
L 3541 1913 
L 2038 1913 
L 2038 425 
L 1628 425 
L 1628 1913 
L 125 1913 
L 125 2325 
z
" transform="scale(0.015625)"/>
      <path id="TimesNewRomanPS-BoldMT-30" d="M 2966 2119 
Q 2966 1484 2788 934 
Q 2681 597 2501 381 
Q 2322 166 2094 39 
Q 1866 -88 1597 -88 
Q 1291 -88 1044 68 
Q 797 225 606 516 
Q 469 728 366 1081 
Q 231 1559 231 2069 
Q 231 2759 425 3338 
Q 584 3816 909 4070 
Q 1234 4325 1597 4325 
Q 1966 4325 2286 4073 
Q 2606 3822 2756 3397 
Q 2966 2813 2966 2119 
z
M 2003 2125 
Q 2003 3238 1991 3422 
Q 1959 3856 1841 4009 
Q 1763 4109 1588 4109 
Q 1453 4109 1375 4034 
Q 1259 3925 1218 3648 
Q 1178 3372 1178 1719 
Q 1178 819 1241 513 
Q 1288 291 1375 216 
Q 1463 141 1606 141 
Q 1763 141 1841 241 
Q 1972 416 1991 781 
L 2003 2125 
z
" transform="scale(0.015625)"/>
      <path id="TimesNewRomanPS-BoldMT-35" d="M 975 4238 
L 2959 4238 
L 2644 3431 
L 975 3431 
L 816 3009 
Q 1894 2969 2475 2472 
Q 2953 2063 2953 1453 
Q 2953 1063 2731 689 
Q 2509 316 2106 114 
Q 1703 -88 1222 -88 
Q 703 -88 425 106 
Q 231 244 231 419 
Q 231 553 332 656 
Q 434 759 569 759 
Q 691 759 816 709 
Q 941 659 1244 447 
Q 1434 316 1572 266 
Q 1669 228 1791 228 
Q 2047 228 2226 415 
Q 2406 603 2406 866 
Q 2406 1416 1856 1759 
Q 1306 2103 469 2103 
Q 384 2103 216 2100 
L 975 4238 
z
" transform="scale(0.015625)"/>
     </defs>
     <use xlink:href="#TimesNewRomanPS-BoldMT-37"/>
     <use xlink:href="#TimesNewRomanPS-BoldMT-2e" transform="translate(50 0)"/>
     <use xlink:href="#TimesNewRomanPS-BoldMT-36" transform="translate(75 0)"/>
     <use xlink:href="#TimesNewRomanPS-BoldMT-34" transform="translate(125 0)"/>
     <use xlink:href="#TimesNewRomanPS-BoldMT-65" transform="translate(175 0)"/>
     <use xlink:href="#TimesNewRomanPS-BoldMT-2b" transform="translate(219.384766 0)"/>
     <use xlink:href="#TimesNewRomanPS-BoldMT-30" transform="translate(276.367188 0)"/>
     <use xlink:href="#TimesNewRomanPS-BoldMT-35" transform="translate(326.367188 0)"/>
    </g>
   </g>
   <g id="text_19">
    <!-- 5.83e+04 -->
    <g style="fill: #262626" transform="translate(234.316869 470.932177) scale(0.09 -0.09)">
     <defs>
      <path id="TimesNewRomanPS-BoldMT-38" d="M 2181 2394 
Q 2628 2066 2801 1783 
Q 2975 1500 2975 1134 
Q 2975 622 2589 267 
Q 2203 -88 1541 -88 
Q 913 -88 569 221 
Q 225 531 225 978 
Q 225 1319 423 1575 
Q 622 1831 1084 2044 
Q 581 2428 439 2672 
Q 297 2916 297 3238 
Q 297 3663 658 3986 
Q 1019 4309 1647 4309 
Q 2253 4309 2579 4023 
Q 2906 3738 2906 3338 
Q 2906 3038 2729 2808 
Q 2553 2578 2181 2394 
z
M 1944 2553 
Q 2059 2709 2115 2903 
Q 2172 3097 2172 3328 
Q 2172 3734 1997 3950 
Q 1866 4116 1634 4116 
Q 1425 4116 1278 3964 
Q 1131 3813 1131 3588 
Q 1131 3359 1295 3114 
Q 1459 2869 1944 2553 
z
M 1319 1894 
Q 1222 1806 1181 1734 
Q 1119 1625 1069 1415 
Q 1019 1206 1019 978 
Q 1019 684 1094 486 
Q 1169 288 1308 200 
Q 1447 113 1594 113 
Q 1822 113 1978 280 
Q 2134 447 2134 738 
Q 2134 1344 1319 1894 
z
" transform="scale(0.015625)"/>
      <path id="TimesNewRomanPS-BoldMT-33" d="M 947 2125 
L 947 2234 
Q 1303 2338 1440 2427 
Q 1578 2516 1678 2698 
Q 1778 2881 1778 3069 
Q 1778 3328 1589 3514 
Q 1400 3700 1119 3700 
Q 681 3700 375 3238 
L 259 3278 
Q 484 3800 836 4062 
Q 1188 4325 1619 4325 
Q 2059 4325 2345 4056 
Q 2631 3788 2631 3428 
Q 2631 3194 2498 2976 
Q 2366 2759 2081 2594 
Q 2447 2416 2639 2155 
Q 2831 1894 2831 1500 
Q 2831 838 2351 373 
Q 1872 -91 1066 -91 
Q 528 -91 281 88 
Q 103 213 103 409 
Q 103 553 206 654 
Q 309 756 444 756 
Q 547 756 638 713 
Q 688 688 992 439 
Q 1297 191 1563 191 
Q 1794 191 1959 373 
Q 2125 556 2125 838 
Q 2125 1266 1825 1627 
Q 1525 1988 947 2125 
z
" transform="scale(0.015625)"/>
     </defs>
     <use xlink:href="#TimesNewRomanPS-BoldMT-35"/>
     <use xlink:href="#TimesNewRomanPS-BoldMT-2e" transform="translate(50 0)"/>
     <use xlink:href="#TimesNewRomanPS-BoldMT-38" transform="translate(75 0)"/>
     <use xlink:href="#TimesNewRomanPS-BoldMT-33" transform="translate(125 0)"/>
     <use xlink:href="#TimesNewRomanPS-BoldMT-65" transform="translate(175 0)"/>
     <use xlink:href="#TimesNewRomanPS-BoldMT-2b" transform="translate(219.384766 0)"/>
     <use xlink:href="#TimesNewRomanPS-BoldMT-30" transform="translate(276.367188 0)"/>
     <use xlink:href="#TimesNewRomanPS-BoldMT-34" transform="translate(326.367188 0)"/>
    </g>
   </g>
   <g id="text_20">
    <!-- 5.95e+05 -->
    <g style="fill: #262626" transform="translate(360.280234 313.225335) scale(0.09 -0.09)">
     <defs>
      <path id="TimesNewRomanPS-BoldMT-39" d="M 197 -88 
L 197 0 
Q 716 119 1077 350 
Q 1438 581 1648 922 
Q 1859 1263 1944 1706 
Q 1750 1606 1614 1567 
Q 1478 1528 1328 1528 
Q 847 1528 526 1875 
Q 206 2222 206 2825 
Q 206 3244 379 3592 
Q 553 3941 875 4133 
Q 1197 4325 1544 4325 
Q 1916 4325 2247 4112 
Q 2578 3900 2775 3497 
Q 2972 3094 2972 2578 
Q 2972 1909 2651 1296 
Q 2331 684 1697 314 
Q 1063 -56 197 -88 
z
M 1991 1969 
Q 2022 2319 2022 2584 
Q 2022 3153 1891 3644 
Q 1816 3916 1669 4044 
Q 1591 4113 1466 4113 
Q 1309 4113 1222 3978 
Q 1100 3794 1100 3275 
Q 1100 2409 1306 2081 
Q 1441 1869 1669 1869 
Q 1791 1869 1991 1969 
z
" transform="scale(0.015625)"/>
     </defs>
     <use xlink:href="#TimesNewRomanPS-BoldMT-35"/>
     <use xlink:href="#TimesNewRomanPS-BoldMT-2e" transform="translate(50 0)"/>
     <use xlink:href="#TimesNewRomanPS-BoldMT-39" transform="translate(75 0)"/>
     <use xlink:href="#TimesNewRomanPS-BoldMT-35" transform="translate(125 0)"/>
     <use xlink:href="#TimesNewRomanPS-BoldMT-65" transform="translate(175 0)"/>
     <use xlink:href="#TimesNewRomanPS-BoldMT-2b" transform="translate(219.384766 0)"/>
     <use xlink:href="#TimesNewRomanPS-BoldMT-30" transform="translate(276.367188 0)"/>
     <use xlink:href="#TimesNewRomanPS-BoldMT-35" transform="translate(326.367188 0)"/>
    </g>
   </g>
   <g id="text_21">
    <!-- 1.11e+05 -->
    <g style="fill: #262626" transform="translate(486.491099 455.526949) scale(0.09 -0.09)">
     <defs>
      <path id="TimesNewRomanPS-BoldMT-31" d="M 2084 4325 
L 2084 859 
Q 2084 469 2118 361 
Q 2153 253 2262 184 
Q 2372 116 2613 116 
L 2709 116 
L 2709 0 
L 478 0 
L 478 116 
L 591 116 
Q 863 116 978 178 
Q 1094 241 1134 350 
Q 1175 459 1175 859 
L 1175 3056 
Q 1175 3350 1147 3423 
Q 1119 3497 1042 3548 
Q 966 3600 866 3600 
Q 706 3600 478 3500 
L 422 3613 
L 1981 4325 
L 2084 4325 
z
" transform="scale(0.015625)"/>
     </defs>
     <use xlink:href="#TimesNewRomanPS-BoldMT-31"/>
     <use xlink:href="#TimesNewRomanPS-BoldMT-2e" transform="translate(50 0)"/>
     <use xlink:href="#TimesNewRomanPS-BoldMT-31" transform="translate(75 0)"/>
     <use xlink:href="#TimesNewRomanPS-BoldMT-31" transform="translate(119.5 0)"/>
     <use xlink:href="#TimesNewRomanPS-BoldMT-65" transform="translate(169.5 0)"/>
     <use xlink:href="#TimesNewRomanPS-BoldMT-2b" transform="translate(213.884766 0)"/>
     <use xlink:href="#TimesNewRomanPS-BoldMT-30" transform="translate(270.867188 0)"/>
     <use xlink:href="#TimesNewRomanPS-BoldMT-35" transform="translate(320.867188 0)"/>
    </g>
   </g>
   <g id="text_22">
    <!-- 3.09e+04 -->
    <g style="fill: #262626" transform="translate(612.206964 478.991842) scale(0.09 -0.09)">
     <use xlink:href="#TimesNewRomanPS-BoldMT-33"/>
     <use xlink:href="#TimesNewRomanPS-BoldMT-2e" transform="translate(50 0)"/>
     <use xlink:href="#TimesNewRomanPS-BoldMT-30" transform="translate(75 0)"/>
     <use xlink:href="#TimesNewRomanPS-BoldMT-39" transform="translate(125 0)"/>
     <use xlink:href="#TimesNewRomanPS-BoldMT-65" transform="translate(175 0)"/>
     <use xlink:href="#TimesNewRomanPS-BoldMT-2b" transform="translate(219.384766 0)"/>
     <use xlink:href="#TimesNewRomanPS-BoldMT-30" transform="translate(276.367188 0)"/>
     <use xlink:href="#TimesNewRomanPS-BoldMT-34" transform="translate(326.367188 0)"/>
    </g>
   </g>
   <g id="text_23">
    <!-- 3.96e+05 -->
    <g style="fill: #262626" transform="translate(738.170329 371.838198) scale(0.09 -0.09)">
     <use xlink:href="#TimesNewRomanPS-BoldMT-33"/>
     <use xlink:href="#TimesNewRomanPS-BoldMT-2e" transform="translate(50 0)"/>
     <use xlink:href="#TimesNewRomanPS-BoldMT-39" transform="translate(75 0)"/>
     <use xlink:href="#TimesNewRomanPS-BoldMT-36" transform="translate(125 0)"/>
     <use xlink:href="#TimesNewRomanPS-BoldMT-65" transform="translate(175 0)"/>
     <use xlink:href="#TimesNewRomanPS-BoldMT-2b" transform="translate(219.384766 0)"/>
     <use xlink:href="#TimesNewRomanPS-BoldMT-30" transform="translate(276.367188 0)"/>
     <use xlink:href="#TimesNewRomanPS-BoldMT-35" transform="translate(326.367188 0)"/>
    </g>
   </g>
   <g id="text_24">
    <!-- 1.19e+06 -->
    <g style="fill: #262626" transform="translate(864.133694 138.260123) scale(0.09 -0.09)">
     <use xlink:href="#TimesNewRomanPS-BoldMT-31"/>
     <use xlink:href="#TimesNewRomanPS-BoldMT-2e" transform="translate(50 0)"/>
     <use xlink:href="#TimesNewRomanPS-BoldMT-31" transform="translate(75 0)"/>
     <use xlink:href="#TimesNewRomanPS-BoldMT-39" transform="translate(125 0)"/>
     <use xlink:href="#TimesNewRomanPS-BoldMT-65" transform="translate(175 0)"/>
     <use xlink:href="#TimesNewRomanPS-BoldMT-2b" transform="translate(219.384766 0)"/>
     <use xlink:href="#TimesNewRomanPS-BoldMT-30" transform="translate(276.367188 0)"/>
     <use xlink:href="#TimesNewRomanPS-BoldMT-36" transform="translate(326.367188 0)"/>
    </g>
   </g>
   <g id="text_25">
    <!-- 9.25e+05 -->
    <g style="fill: #262626" transform="translate(152.440681 216.164346) scale(0.09 -0.09)">
     <defs>
      <path id="TimesNewRomanPS-BoldMT-32" d="M 2650 0 
L 156 0 
L 156 69 
Q 1303 1434 1548 1906 
Q 1794 2378 1794 2828 
Q 1794 3156 1591 3373 
Q 1388 3591 1094 3591 
Q 613 3591 347 3109 
L 231 3150 
Q 400 3750 744 4037 
Q 1088 4325 1538 4325 
Q 1859 4325 2125 4175 
Q 2391 4025 2541 3764 
Q 2691 3503 2691 3275 
Q 2691 2859 2459 2431 
Q 2144 1853 1081 819 
L 1997 819 
Q 2334 819 2436 847 
Q 2538 875 2603 942 
Q 2669 1009 2775 1225 
L 2888 1225 
L 2650 0 
z
" transform="scale(0.015625)"/>
     </defs>
     <use xlink:href="#TimesNewRomanPS-BoldMT-39"/>
     <use xlink:href="#TimesNewRomanPS-BoldMT-2e" transform="translate(50 0)"/>
     <use xlink:href="#TimesNewRomanPS-BoldMT-32" transform="translate(75 0)"/>
     <use xlink:href="#TimesNewRomanPS-BoldMT-35" transform="translate(125 0)"/>
     <use xlink:href="#TimesNewRomanPS-BoldMT-65" transform="translate(175 0)"/>
     <use xlink:href="#TimesNewRomanPS-BoldMT-2b" transform="translate(219.384766 0)"/>
     <use xlink:href="#TimesNewRomanPS-BoldMT-30" transform="translate(276.367188 0)"/>
     <use xlink:href="#TimesNewRomanPS-BoldMT-35" transform="translate(326.367188 0)"/>
    </g>
   </g>
   <g id="text_26">
    <!-- 6.03e+04 -->
    <g style="fill: #262626" transform="translate(278.404046 470.335034) scale(0.09 -0.09)">
     <use xlink:href="#TimesNewRomanPS-BoldMT-36"/>
     <use xlink:href="#TimesNewRomanPS-BoldMT-2e" transform="translate(50 0)"/>
     <use xlink:href="#TimesNewRomanPS-BoldMT-30" transform="translate(75 0)"/>
     <use xlink:href="#TimesNewRomanPS-BoldMT-33" transform="translate(125 0)"/>
     <use xlink:href="#TimesNewRomanPS-BoldMT-65" transform="translate(175 0)"/>
     <use xlink:href="#TimesNewRomanPS-BoldMT-2b" transform="translate(219.384766 0)"/>
     <use xlink:href="#TimesNewRomanPS-BoldMT-30" transform="translate(276.367188 0)"/>
     <use xlink:href="#TimesNewRomanPS-BoldMT-34" transform="translate(326.367188 0)"/>
    </g>
   </g>
   <g id="text_27">
    <!-- 8.65e+05 -->
    <g style="fill: #262626" transform="translate(404.367411 233.892906) scale(0.09 -0.09)">
     <use xlink:href="#TimesNewRomanPS-BoldMT-38"/>
     <use xlink:href="#TimesNewRomanPS-BoldMT-2e" transform="translate(50 0)"/>
     <use xlink:href="#TimesNewRomanPS-BoldMT-36" transform="translate(75 0)"/>
     <use xlink:href="#TimesNewRomanPS-BoldMT-35" transform="translate(125 0)"/>
     <use xlink:href="#TimesNewRomanPS-BoldMT-65" transform="translate(175 0)"/>
     <use xlink:href="#TimesNewRomanPS-BoldMT-2b" transform="translate(219.384766 0)"/>
     <use xlink:href="#TimesNewRomanPS-BoldMT-30" transform="translate(276.367188 0)"/>
     <use xlink:href="#TimesNewRomanPS-BoldMT-35" transform="translate(326.367188 0)"/>
    </g>
   </g>
   <g id="text_28">
    <!-- 0.00e+00 -->
    <g style="fill: #262626" transform="translate(530.330776 488.063594) scale(0.09 -0.09)">
     <use xlink:href="#TimesNewRomanPS-BoldMT-30"/>
     <use xlink:href="#TimesNewRomanPS-BoldMT-2e" transform="translate(50 0)"/>
     <use xlink:href="#TimesNewRomanPS-BoldMT-30" transform="translate(75 0)"/>
     <use xlink:href="#TimesNewRomanPS-BoldMT-30" transform="translate(125 0)"/>
     <use xlink:href="#TimesNewRomanPS-BoldMT-65" transform="translate(175 0)"/>
     <use xlink:href="#TimesNewRomanPS-BoldMT-2b" transform="translate(219.384766 0)"/>
     <use xlink:href="#TimesNewRomanPS-BoldMT-30" transform="translate(276.367188 0)"/>
     <use xlink:href="#TimesNewRomanPS-BoldMT-30" transform="translate(326.367188 0)"/>
    </g>
   </g>
   <g id="text_29">
    <!-- 2.42e+04 -->
    <g style="fill: #262626" transform="translate(656.294141 480.966645) scale(0.09 -0.09)">
     <use xlink:href="#TimesNewRomanPS-BoldMT-32"/>
     <use xlink:href="#TimesNewRomanPS-BoldMT-2e" transform="translate(50 0)"/>
     <use xlink:href="#TimesNewRomanPS-BoldMT-34" transform="translate(75 0)"/>
     <use xlink:href="#TimesNewRomanPS-BoldMT-32" transform="translate(125 0)"/>
     <use xlink:href="#TimesNewRomanPS-BoldMT-65" transform="translate(175 0)"/>
     <use xlink:href="#TimesNewRomanPS-BoldMT-2b" transform="translate(219.384766 0)"/>
     <use xlink:href="#TimesNewRomanPS-BoldMT-30" transform="translate(276.367188 0)"/>
     <use xlink:href="#TimesNewRomanPS-BoldMT-34" transform="translate(326.367188 0)"/>
    </g>
   </g>
   <g id="text_30">
    <!-- 4.06e+05 -->
    <g style="fill: #262626" transform="translate(782.257506 368.752569) scale(0.09 -0.09)">
     <use xlink:href="#TimesNewRomanPS-BoldMT-34"/>
     <use xlink:href="#TimesNewRomanPS-BoldMT-2e" transform="translate(50 0)"/>
     <use xlink:href="#TimesNewRomanPS-BoldMT-30" transform="translate(75 0)"/>
     <use xlink:href="#TimesNewRomanPS-BoldMT-36" transform="translate(125 0)"/>
     <use xlink:href="#TimesNewRomanPS-BoldMT-65" transform="translate(175 0)"/>
     <use xlink:href="#TimesNewRomanPS-BoldMT-2b" transform="translate(219.384766 0)"/>
     <use xlink:href="#TimesNewRomanPS-BoldMT-30" transform="translate(276.367188 0)"/>
     <use xlink:href="#TimesNewRomanPS-BoldMT-35" transform="translate(326.367188 0)"/>
    </g>
   </g>
   <g id="text_31">
    <!-- 1.36e+06 -->
    <g style="fill: #262626" transform="translate(908.220871 89.756371) scale(0.09 -0.09)">
     <use xlink:href="#TimesNewRomanPS-BoldMT-31"/>
     <use xlink:href="#TimesNewRomanPS-BoldMT-2e" transform="translate(50 0)"/>
     <use xlink:href="#TimesNewRomanPS-BoldMT-33" transform="translate(75 0)"/>
     <use xlink:href="#TimesNewRomanPS-BoldMT-36" transform="translate(125 0)"/>
     <use xlink:href="#TimesNewRomanPS-BoldMT-65" transform="translate(175 0)"/>
     <use xlink:href="#TimesNewRomanPS-BoldMT-2b" transform="translate(219.384766 0)"/>
     <use xlink:href="#TimesNewRomanPS-BoldMT-30" transform="translate(276.367188 0)"/>
     <use xlink:href="#TimesNewRomanPS-BoldMT-36" transform="translate(326.367188 0)"/>
    </g>
   </g>
   <g id="text_32">
    <!-- 不同场景下的成本对比分析 -->
    <g style="fill: #262626" transform="translate(459.887813 16.470625) scale(0.14 -0.14)">
     <defs>
      <path id="TimesNewRomanPS-BoldMT-4e0d" d="M 888 0 
L 888 4000 
L 4088 4000 
L 4088 0 
L 888 0 
z
M 988 100 
L 3988 100 
L 3988 3900 
L 988 3900 
L 988 100 
z
" transform="scale(0.015625)"/>
      <path id="TimesNewRomanPS-BoldMT-540c" d="M 888 0 
L 888 4000 
L 4088 4000 
L 4088 0 
L 888 0 
z
M 988 100 
L 3988 100 
L 3988 3900 
L 988 3900 
L 988 100 
z
" transform="scale(0.015625)"/>
      <path id="TimesNewRomanPS-BoldMT-573a" d="M 888 0 
L 888 4000 
L 4088 4000 
L 4088 0 
L 888 0 
z
M 988 100 
L 3988 100 
L 3988 3900 
L 988 3900 
L 988 100 
z
" transform="scale(0.015625)"/>
      <path id="TimesNewRomanPS-BoldMT-666f" d="M 888 0 
L 888 4000 
L 4088 4000 
L 4088 0 
L 888 0 
z
M 988 100 
L 3988 100 
L 3988 3900 
L 988 3900 
L 988 100 
z
" transform="scale(0.015625)"/>
      <path id="TimesNewRomanPS-BoldMT-4e0b" d="M 888 0 
L 888 4000 
L 4088 4000 
L 4088 0 
L 888 0 
z
M 988 100 
L 3988 100 
L 3988 3900 
L 988 3900 
L 988 100 
z
" transform="scale(0.015625)"/>
      <path id="TimesNewRomanPS-BoldMT-7684" d="M 888 0 
L 888 4000 
L 4088 4000 
L 4088 0 
L 888 0 
z
M 988 100 
L 3988 100 
L 3988 3900 
L 988 3900 
L 988 100 
z
" transform="scale(0.015625)"/>
      <path id="TimesNewRomanPS-BoldMT-5bf9" d="M 888 0 
L 888 4000 
L 4088 4000 
L 4088 0 
L 888 0 
z
M 988 100 
L 3988 100 
L 3988 3900 
L 988 3900 
L 988 100 
z
" transform="scale(0.015625)"/>
      <path id="TimesNewRomanPS-BoldMT-6bd4" d="M 888 0 
L 888 4000 
L 4088 4000 
L 4088 0 
L 888 0 
z
M 988 100 
L 3988 100 
L 3988 3900 
L 988 3900 
L 988 100 
z
" transform="scale(0.015625)"/>
      <path id="TimesNewRomanPS-BoldMT-5206" d="M 888 0 
L 888 4000 
L 4088 4000 
L 4088 0 
L 888 0 
z
M 988 100 
L 3988 100 
L 3988 3900 
L 988 3900 
L 988 100 
z
" transform="scale(0.015625)"/>
      <path id="TimesNewRomanPS-BoldMT-6790" d="M 888 0 
L 888 4000 
L 4088 4000 
L 4088 0 
L 888 0 
z
M 988 100 
L 3988 100 
L 3988 3900 
L 988 3900 
L 988 100 
z
" transform="scale(0.015625)"/>
     </defs>
     <use xlink:href="#TimesNewRomanPS-BoldMT-4e0d"/>
     <use xlink:href="#TimesNewRomanPS-BoldMT-540c" transform="translate(77.783203 0)"/>
     <use xlink:href="#TimesNewRomanPS-BoldMT-573a" transform="translate(155.566406 0)"/>
     <use xlink:href="#TimesNewRomanPS-BoldMT-666f" transform="translate(233.349609 0)"/>
     <use xlink:href="#TimesNewRomanPS-BoldMT-4e0b" transform="translate(311.132812 0)"/>
     <use xlink:href="#TimesNewRomanPS-BoldMT-7684" transform="translate(388.916016 0)"/>
     <use xlink:href="#TimesNewRomanPS-BoldMT-6210" transform="translate(466.699219 0)"/>
     <use xlink:href="#TimesNewRomanPS-BoldMT-672c" transform="translate(544.482422 0)"/>
     <use xlink:href="#TimesNewRomanPS-BoldMT-5bf9" transform="translate(622.265625 0)"/>
     <use xlink:href="#TimesNewRomanPS-BoldMT-6bd4" transform="translate(700.048828 0)"/>
     <use xlink:href="#TimesNewRomanPS-BoldMT-5206" transform="translate(777.832031 0)"/>
     <use xlink:href="#TimesNewRomanPS-BoldMT-6790" transform="translate(855.615234 0)"/>
    </g>
   </g>
   <g id="legend_1">
    <g id="patch_19">
     <path d="M 70.749063 78.376562 
L 157.284688 78.376562 
Q 159.484688 78.376562 159.484688 76.176562 
L 159.484688 46.170625 
Q 159.484688 43.970625 157.284688 43.970625 
L 70.749063 43.970625 
Q 68.549063 43.970625 68.549063 46.170625 
L 68.549063 76.176562 
Q 68.549063 78.376562 70.749063 78.376562 
z
" style="fill: #4d4d4d; opacity: 0.5; stroke: #4d4d4d; stroke-width: 1.2; stroke-linejoin: miter"/>
    </g>
    <g id="patch_20">
     <path d="M 68.749063 76.376562 
L 155.284688 76.376562 
Q 157.484688 76.376562 157.484688 74.176562 
L 157.484688 44.170625 
Q 157.484688 41.970625 155.284688 41.970625 
L 68.749063 41.970625 
Q 66.549063 41.970625 66.549063 44.170625 
L 66.549063 74.176562 
Q 66.549063 76.376562 68.749063 76.376562 
z
" style="fill: #ffffff; opacity: 0.9; stroke: #808080; stroke-width: 1.2; stroke-linejoin: miter"/>
    </g>
    <g id="patch_21">
     <path d="M 70.949063 54.070625 
L 92.949063 54.070625 
L 92.949063 46.370625 
L 70.949063 46.370625 
z
" style="fill: #2e86ab; opacity: 0.8; stroke: #000000; stroke-width: 1.2; stroke-linejoin: miter"/>
    </g>
    <g id="text_33">
     <!-- 海陆协同 -->
     <g style="fill: #262626" transform="translate(101.749063 54.070625) scale(0.11 -0.11)">
      <defs>
       <path id="TimesNewRomanPSMT-534f" d="M 888 0 
L 888 4000 
L 4088 4000 
L 4088 0 
L 888 0 
z
M 988 100 
L 3988 100 
L 3988 3900 
L 988 3900 
L 988 100 
z
" transform="scale(0.015625)"/>
       <path id="TimesNewRomanPSMT-540c" d="M 888 0 
L 888 4000 
L 4088 4000 
L 4088 0 
L 888 0 
z
M 988 100 
L 3988 100 
L 3988 3900 
L 988 3900 
L 988 100 
z
" transform="scale(0.015625)"/>
      </defs>
      <use xlink:href="#TimesNewRomanPSMT-6d77"/>
      <use xlink:href="#TimesNewRomanPSMT-9646" transform="translate(77.783203 0)"/>
      <use xlink:href="#TimesNewRomanPSMT-534f" transform="translate(155.566406 0)"/>
      <use xlink:href="#TimesNewRomanPSMT-540c" transform="translate(233.349609 0)"/>
     </g>
    </g>
    <g id="patch_22">
     <path d="M 70.949063 69.623594 
L 92.949063 69.623594 
L 92.949063 61.923594 
L 70.949063 61.923594 
z
" style="fill: #a23b72; opacity: 0.8; stroke: #000000; stroke-width: 1.2; stroke-linejoin: miter"/>
    </g>
    <g id="text_34">
     <!-- 陆港间无流转 -->
     <g style="fill: #262626" transform="translate(101.749063 69.623594) scale(0.11 -0.11)">
      <defs>
       <path id="TimesNewRomanPSMT-65e0" d="M 888 0 
L 888 4000 
L 4088 4000 
L 4088 0 
L 888 0 
z
M 988 100 
L 3988 100 
L 3988 3900 
L 988 3900 
L 988 100 
z
" transform="scale(0.015625)"/>
       <path id="TimesNewRomanPSMT-6d41" d="M 888 0 
L 888 4000 
L 4088 4000 
L 4088 0 
L 888 0 
z
M 988 100 
L 3988 100 
L 3988 3900 
L 988 3900 
L 988 100 
z
" transform="scale(0.015625)"/>
       <path id="TimesNewRomanPSMT-8f6c" d="M 888 0 
L 888 4000 
L 4088 4000 
L 4088 0 
L 888 0 
z
M 988 100 
L 3988 100 
L 3988 3900 
L 988 3900 
L 988 100 
z
" transform="scale(0.015625)"/>
      </defs>
      <use xlink:href="#TimesNewRomanPSMT-9646"/>
      <use xlink:href="#TimesNewRomanPSMT-6e2f" transform="translate(77.783203 0)"/>
      <use xlink:href="#TimesNewRomanPSMT-95f4" transform="translate(155.566406 0)"/>
      <use xlink:href="#TimesNewRomanPSMT-65e0" transform="translate(233.349609 0)"/>
      <use xlink:href="#TimesNewRomanPSMT-6d41" transform="translate(311.132812 0)"/>
      <use xlink:href="#TimesNewRomanPSMT-8f6c" transform="translate(388.916016 0)"/>
     </g>
    </g>
   </g>
  </g>
 </g>
 <defs>
  <clipPath id="pdda98b50c0">
   <rect x="61.049063" y="36.470625" width="928.35" height="453.518126"/>
  </clipPath>
 </defs>
</svg>
